<svg width="32" height="32" viewBox="0 0 32 32" fill="none" xmlns="http://www.w3.org/2000/svg">
  <defs>
    <linearGradient id="gradient" x1="0%" y1="0%" x2="100%" y2="100%">
      <stop offset="0%" style="stop-color:#3B82F6;stop-opacity:1" />
      <stop offset="100%" style="stop-color:#8B5CF6;stop-opacity:1" />
    </linearGradient>
  </defs>
  
  <!-- Background Circle -->
  <circle cx="16" cy="16" r="15" fill="url(#gradient)" stroke="#ffffff" stroke-width="2"/>
  
  <!-- Book Icon -->
  <path d="M8 6C8 5.44772 8.44772 5 9 5H23C23.5523 5 24 5.44772 24 6V26C24 26.5523 23.5523 27 23 27H9C8.44772 27 8 26.5523 8 26V6Z" fill="white" fill-opacity="0.9"/>
  <path d="M8 6C8 5.44772 8.44772 5 9 5H21C21.5523 5 22 5.44772 22 6V26C22 26.5523 21.5523 27 21 27H9C8.44772 27 8 26.5523 8 26V6Z" fill="white"/>
  
  <!-- Pages -->
  <line x1="11" y1="9" x2="19" y2="9" stroke="url(#gradient)" stroke-width="1.5" stroke-linecap="round"/>
  <line x1="11" y1="12" x2="17" y2="12" stroke="url(#gradient)" stroke-width="1.5" stroke-linecap="round"/>
  <line x1="11" y1="15" x2="19" y2="15" stroke="url(#gradient)" stroke-width="1.5" stroke-linecap="round"/>
  <line x1="11" y1="18" x2="16" y2="18" stroke="url(#gradient)" stroke-width="1.5" stroke-linecap="round"/>
  
  <!-- Heart Symbol -->
  <path d="M16 23C16 23 12 20 12 17C12 15.5 13 14.5 14.5 14.5C15.5 14.5 16 15.5 16 15.5S16.5 14.5 17.5 14.5C19 14.5 20 15.5 20 17C20 20 16 23 16 23Z" fill="#EF4444" stroke="white" stroke-width="0.5"/>
</svg>